<svg width="1035" height="431" viewBox="0 0 1035 431" fill="none" xmlns="http://www.w3.org/2000/svg">
<rect width="1035" height="431" fill="#E5E5E5"/>
<g id="Human">
<path id="Vector" d="M223.664 236.909C223.673 235.568 223.406 234.239 222.88 233.006C222.353 231.772 221.578 230.661 220.603 229.741C219.628 228.821 218.475 228.112 217.214 227.658C215.953 227.205 214.612 227.016 213.276 227.105C211.939 227.193 210.635 227.556 209.444 228.172C208.254 228.788 207.204 229.643 206.358 230.683C205.513 231.723 204.89 232.927 204.53 234.219C204.17 235.511 204.08 236.864 204.266 238.192L176.265 274.905C175.07 277.297 174.606 279.99 174.933 282.645C175.259 285.299 176.361 287.799 178.1 289.83L180.296 292.395L190.374 290.377L201.797 280.287L200.453 268.85L214.563 246.651L214.545 246.635C217.014 246.478 219.332 245.385 221.026 243.578C222.719 241.771 223.663 239.387 223.664 236.909Z" fill="#FFB9B9"/>
<path id="Vector_2" d="M30.0268 416.394L25.4559 399.397L88.7579 373.66L95.5037 398.744L30.0268 416.394Z" fill="#FFB8B8"/>
<path id="Vector_3" d="M14.7371 425.164L0 370.362L0.692313 370.175C6.3426 368.652 12.3657 369.439 17.4368 372.362C22.5079 375.285 26.2117 380.105 27.7335 385.762L27.7338 385.763L36.7346 419.235L14.7371 425.164Z" fill="#2F2E41"/>
<path id="Vector_4" d="M117.222 413.678L103.005 403.326L136.12 343.494L157.104 358.772L117.222 413.678Z" fill="#FFB8B8"/>
<path id="Vector_5" d="M110.826 430.117L64.9819 396.737L65.4036 396.157C68.8453 391.419 74.0258 388.244 79.8056 387.33C85.5854 386.416 91.4911 387.838 96.2238 391.283L96.2249 391.284L124.225 411.671L110.826 430.117Z" fill="#2F2E41"/>
<path id="Vector_6" d="M238.079 330.067L202.301 295.269C199.179 292.232 195.066 290.426 190.72 290.183C186.373 289.94 182.085 291.276 178.644 293.946L111.09 369.084L117.137 378.502L181.639 334.776L225.313 391.956L266.971 371.103L238.079 330.067Z" fill="#343030"/>
<path id="Vector_7" d="M222.626 337.467L196.421 335.449L177.444 330.843C176.373 329.168 174.815 327.862 172.981 327.098C171.147 326.334 169.124 326.15 167.182 326.569C165.241 326.988 163.473 327.992 162.117 329.444C160.76 330.897 159.88 332.73 159.592 334.698C159.305 336.666 159.625 338.674 160.509 340.455C161.394 342.236 162.8 343.703 164.541 344.661C166.281 345.62 168.273 346.023 170.248 345.816C172.224 345.61 174.09 344.805 175.595 343.508L175.593 343.521L187.015 348.23L236.064 365.048L242.111 360.339L222.626 337.467Z" fill="#FFB9B9"/>
<path id="Vector_8" d="M285.784 410.12L271.002 419.538H253.533L172.233 389.266L53.3067 410.793L49.9473 385.229L158.796 337.467L254.205 369.084L285.784 410.12Z" fill="#313030"/>
<path id="Vector_9" d="M254.205 246.651C268.677 246.651 280.409 234.905 280.409 220.415C280.409 205.926 268.677 194.18 254.205 194.18C239.733 194.18 228.001 205.926 228.001 220.415C228.001 234.905 239.733 246.651 254.205 246.651Z" fill="#FFB9B9"/>
<path id="Vector_10" d="M322.006 325.163C322.006 340.997 319.514 356.732 314.622 371.789L312.66 377.83L303.254 420.883L293.175 423.574L285.784 414.156L271.003 403.393L260.252 385.902L251.034 370.524L248.158 365.721L238.079 315.267L199.781 293.741L187.015 291.723L189.703 284.323L201.125 268.85L212.547 267.505L215.907 264.814L218.594 266.16L233.41 271.874L281.444 251.555L288.472 252.705L312.66 272.887C318.844 289.62 322.008 307.321 322.006 325.163Z" fill="white"/>
<path id="Vector_11" opacity="0.1" d="M314.675 319.304L289.144 336.121L251.034 370.523L248.158 365.721L240.095 325.358H242.111L262.94 287.014L314.675 319.304Z" fill="black"/>
<path id="Vector_12" d="M262.94 282.977L242.111 321.321L230.017 334.776L219.267 337.467L248.158 369.084L289.144 332.085L314.676 315.267L262.94 282.977Z" fill="white"/>
<path id="Vector_13" d="M233.824 200.908L230.984 202.002C230.553 201.709 230.184 201.335 229.898 200.9C229.611 200.465 229.413 199.978 229.315 199.466C229.216 198.954 229.219 198.428 229.324 197.918C229.429 197.407 229.633 196.922 229.925 196.491C229.94 196.468 229.955 196.446 229.971 196.423L224.724 196.178C228.093 191.687 232.375 187.963 237.288 185.253C242.201 182.542 247.632 180.908 253.224 180.456C258.815 180.005 264.438 180.748 269.721 182.635C275.004 184.523 279.827 187.512 283.87 191.405C284.109 190.581 286.713 192.183 287.776 193.808C288.133 192.468 290.575 198.947 291.438 203.527C291.838 202.002 293.375 204.464 292.028 206.827C292.882 206.702 293.267 208.888 292.607 210.105C293.54 209.666 293.383 212.275 292.371 214.019C293.703 213.901 292.257 241.37 272.266 239.369C270.875 232.967 271.267 233.364 269.628 225.132C268.865 224.321 268.03 223.583 267.196 222.846L262.686 218.86C257.441 214.225 252.67 208.504 245.683 206.772C240.881 205.581 237.845 205.312 240.462 199.895C238.098 200.883 235.89 202.352 233.504 203.269C233.537 202.512 233.87 201.665 233.824 200.908Z" fill="#2F2E41"/>
<path id="Vector_14" d="M267.307 228.151C269.905 228.151 272.01 226.043 272.01 223.442C272.01 220.842 269.905 218.734 267.307 218.734C264.71 218.734 262.604 220.842 262.604 223.442C262.604 226.043 264.71 228.151 267.307 228.151Z" fill="#FFB9B9"/>
</g>
<g id="Laptop">
<path id="Vector_15" d="M978.468 0H339.389C337.079 -2.62834e-06 334.792 0.455526 332.658 1.34058C330.523 2.22563 328.584 3.52286 326.951 5.15823C325.318 6.79359 324.022 8.73505 323.138 10.8718C322.254 13.0085 321.799 15.2986 321.799 17.6113V374.124C321.799 376.436 322.254 378.726 323.138 380.863C324.022 383 325.318 384.941 326.951 386.577C328.584 388.212 330.523 389.509 332.658 390.394C334.792 391.279 337.079 391.735 339.389 391.735H978.468C983.133 391.735 987.607 389.879 990.906 386.577C994.205 383.274 996.058 378.794 996.058 374.124V17.6113C996.058 12.9405 994.205 8.46101 990.906 5.15824C987.607 1.85548 983.133 2.6541e-06 978.468 0Z" fill="white"/>
<path id="Vector_16" d="M972.475 31.1241H345.382V385.296H972.475V31.1241Z" fill="#FA00FF"/>
<path id="Vector_17" d="M658.393 21.4649C661.945 21.4649 664.824 18.5819 664.824 15.0255C664.824 11.469 661.945 8.58598 658.393 8.58598C654.84 8.58598 651.961 11.469 651.961 15.0255C651.961 18.5819 654.84 21.4649 658.393 21.4649Z" fill="white"/>
<path id="Vector_18" d="M793.137 385.296H345.382V31.1247L793.137 385.296Z" fill="black"/>
<g id="Vector_19">
<path d="M443.503 358.793C476.794 358.793 503.781 331.773 503.781 298.442C503.781 265.111 476.794 238.091 443.503 238.091C410.213 238.091 383.225 265.111 383.225 298.442C383.225 331.773 410.213 358.793 443.503 358.793Z" fill="#FA00FF" style="mix-blend-mode:lighten"/>
</g>
<g id="Vector_20" filter="url(#filter0_d)">
<path d="M827.305 215.126H768.728V227.381H827.305V215.126Z" fill="#FFA800"/>
</g>
<g id="Vector_21" filter="url(#filter1_d)">
<path d="M882.725 148.735H713.308V153.987H882.725V148.735Z" fill="#FFA800"/>
</g>
<g id="Vector_22" filter="url(#filter2_d)">
<path d="M882.725 169.37H713.308V174.622H882.725V169.37Z" fill="#FFA800"/>
</g>
<g id="Vector_23" filter="url(#filter3_d)">
<path d="M882.725 190.004H713.308V195.256H882.725V190.004Z" fill="#FFA800"/>
</g>
<g id="Vector_24" filter="url(#filter4_d)">
<path d="M928.108 52.3198H903.628V76.8294H928.108V52.3198Z" fill="black"/>
<path d="M904.128 76.3294V52.8198H927.608V76.3294H904.128Z" stroke="black"/>
</g>
<path id="Vector_25" d="M1013.67 378.856H952.465V374.441C952.465 374.326 952.443 374.212 952.399 374.106C952.355 374 952.291 373.904 952.209 373.822C952.128 373.741 952.032 373.677 951.926 373.633C951.82 373.589 951.706 373.566 951.591 373.566H930.608C930.493 373.566 930.38 373.589 930.274 373.633C930.167 373.677 930.071 373.741 929.99 373.822C929.909 373.904 929.844 374 929.8 374.106C929.756 374.212 929.734 374.326 929.734 374.441V378.856H916.62V374.441C916.62 374.326 916.597 374.212 916.553 374.106C916.509 374 916.445 373.904 916.364 373.822C916.282 373.741 916.186 373.677 916.08 373.633C915.974 373.589 915.86 373.566 915.745 373.566H894.762C894.648 373.566 894.534 373.589 894.428 373.633C894.322 373.677 894.225 373.741 894.144 373.822C894.063 373.904 893.999 374 893.955 374.106C893.911 374.212 893.888 374.326 893.888 374.441V378.856H880.774V374.441C880.774 374.326 880.751 374.212 880.707 374.106C880.663 374 880.599 373.904 880.518 373.822C880.437 373.741 880.34 373.677 880.234 373.633C880.128 373.589 880.014 373.566 879.9 373.566H858.916C858.802 373.566 858.688 373.589 858.582 373.633C858.476 373.677 858.379 373.741 858.298 373.822C858.217 373.904 858.153 374 858.109 374.106C858.065 374.212 858.042 374.326 858.042 374.441V378.856H844.928V374.441C844.928 374.326 844.905 374.212 844.861 374.106C844.817 374 844.753 373.904 844.672 373.822C844.591 373.741 844.494 373.677 844.388 373.633C844.282 373.589 844.168 373.566 844.054 373.566H823.071C822.956 373.566 822.842 373.589 822.736 373.633C822.63 373.677 822.534 373.741 822.452 373.822C822.371 373.904 822.307 374 822.263 374.106C822.219 374.212 822.196 374.326 822.196 374.441V378.856H809.082V374.441C809.082 374.326 809.059 374.212 809.016 374.106C808.972 374 808.907 373.904 808.826 373.822C808.745 373.741 808.648 373.677 808.542 373.633C808.436 373.589 808.323 373.566 808.208 373.566H787.225C787.11 373.566 786.996 373.589 786.89 373.633C786.784 373.677 786.688 373.741 786.607 373.822C786.525 373.904 786.461 374 786.417 374.106C786.373 374.212 786.351 374.326 786.351 374.441V378.856H773.236V374.441C773.236 374.326 773.214 374.212 773.17 374.106C773.126 374 773.061 373.904 772.98 373.822C772.899 373.741 772.803 373.677 772.696 373.633C772.59 373.589 772.477 373.566 772.362 373.566H751.379C751.264 373.566 751.15 373.589 751.044 373.633C750.938 373.677 750.842 373.741 750.761 373.822C750.68 373.904 750.615 374 750.571 374.106C750.527 374.212 750.505 374.326 750.505 374.441V378.856H737.39V374.441C737.39 374.326 737.368 374.212 737.324 374.106C737.28 374 737.215 373.904 737.134 373.822C737.053 373.741 736.957 373.677 736.851 373.633C736.745 373.589 736.631 373.566 736.516 373.566H572.15C572.035 373.566 571.921 373.589 571.815 373.633C571.709 373.677 571.613 373.741 571.531 373.822C571.45 373.904 571.386 374 571.342 374.106C571.298 374.212 571.275 374.326 571.275 374.441V378.856H558.161V374.441C558.161 374.326 558.138 374.212 558.095 374.106C558.051 374 557.986 373.904 557.905 373.822C557.824 373.741 557.727 373.677 557.621 373.633C557.515 373.589 557.402 373.566 557.287 373.566H536.304C536.189 373.566 536.075 373.589 535.969 373.633C535.863 373.677 535.767 373.741 535.686 373.822C535.604 373.904 535.54 374 535.496 374.106C535.452 374.212 535.43 374.326 535.43 374.441V378.856H522.315V374.441C522.315 374.326 522.293 374.212 522.249 374.106C522.205 374 522.14 373.904 522.059 373.822C521.978 373.741 521.882 373.677 521.776 373.633C521.67 373.589 521.556 373.566 521.441 373.566H500.458C500.343 373.566 500.229 373.589 500.123 373.633C500.017 373.677 499.921 373.741 499.84 373.822C499.759 373.904 499.694 374 499.65 374.106C499.606 374.212 499.584 374.326 499.584 374.441V378.856H486.469V374.441C486.469 374.326 486.447 374.212 486.403 374.106C486.359 374 486.294 373.904 486.213 373.822C486.132 373.741 486.036 373.677 485.93 373.633C485.824 373.589 485.71 373.566 485.595 373.566H464.612C464.497 373.566 464.384 373.589 464.277 373.633C464.171 373.677 464.075 373.741 463.994 373.822C463.913 373.904 463.848 374 463.804 374.106C463.76 374.212 463.738 374.326 463.738 374.441V378.856H450.624V374.441C450.624 374.326 450.601 374.212 450.557 374.106C450.513 374 450.449 373.904 450.367 373.822C450.286 373.741 450.19 373.677 450.084 373.633C449.978 373.589 449.864 373.566 449.749 373.566H428.766C428.651 373.566 428.538 373.589 428.432 373.633C428.326 373.677 428.229 373.741 428.148 373.822C428.067 373.904 428.002 374 427.959 374.106C427.915 374.212 427.892 374.326 427.892 374.441V378.856H414.778V374.441C414.778 374.326 414.755 374.212 414.711 374.106C414.667 374 414.603 373.904 414.522 373.822C414.44 373.741 414.344 373.677 414.238 373.633C414.132 373.589 414.018 373.566 413.903 373.566H392.92C392.689 373.566 392.466 373.658 392.302 373.822C392.138 373.986 392.046 374.209 392.046 374.441V378.856H378.932V374.441C378.932 374.326 378.909 374.212 378.865 374.106C378.821 374 378.757 373.904 378.676 373.822C378.595 373.741 378.498 373.677 378.392 373.633C378.286 373.589 378.172 373.566 378.058 373.566H357.075C356.843 373.566 356.62 373.658 356.456 373.822C356.292 373.986 356.2 374.209 356.2 374.441V378.856H315.983C310.418 378.856 305.081 381.069 301.146 385.009C297.211 388.949 295 394.293 295 399.864V409.364C295 414.935 297.211 420.279 301.146 424.219C305.081 428.158 310.418 430.372 315.983 430.372H1013.67C1019.23 430.372 1024.57 428.158 1028.5 424.219C1032.44 420.279 1034.65 414.935 1034.65 409.364V399.864C1034.65 397.105 1034.11 394.374 1033.05 391.825C1032 389.276 1030.45 386.96 1028.5 385.009C1026.55 383.058 1024.24 381.511 1021.7 380.455C1019.15 379.399 1016.42 378.856 1013.67 378.856Z" fill="#F7F7F7"/>
</g>
<defs>
<filter id="filter0_d" x="764.728" y="215.126" width="66.5774" height="20.2548" filterUnits="userSpaceOnUse" color-interpolation-filters="sRGB">
<feFlood flood-opacity="0" result="BackgroundImageFix"/>
<feColorMatrix in="SourceAlpha" type="matrix" values="0 0 0 0 0 0 0 0 0 0 0 0 0 0 0 0 0 0 127 0"/>
<feOffset dy="4"/>
<feGaussianBlur stdDeviation="2"/>
<feColorMatrix type="matrix" values="0 0 0 0 0 0 0 0 0 0 0 0 0 0 0 0 0 0 0.25 0"/>
<feBlend mode="normal" in2="BackgroundImageFix" result="effect1_dropShadow"/>
<feBlend mode="normal" in="SourceGraphic" in2="effect1_dropShadow" result="shape"/>
</filter>
<filter id="filter1_d" x="709.308" y="148.735" width="177.417" height="13.2521" filterUnits="userSpaceOnUse" color-interpolation-filters="sRGB">
<feFlood flood-opacity="0" result="BackgroundImageFix"/>
<feColorMatrix in="SourceAlpha" type="matrix" values="0 0 0 0 0 0 0 0 0 0 0 0 0 0 0 0 0 0 127 0"/>
<feOffset dy="4"/>
<feGaussianBlur stdDeviation="2"/>
<feColorMatrix type="matrix" values="0 0 0 0 0 0 0 0 0 0 0 0 0 0 0 0 0 0 0.25 0"/>
<feBlend mode="normal" in2="BackgroundImageFix" result="effect1_dropShadow"/>
<feBlend mode="normal" in="SourceGraphic" in2="effect1_dropShadow" result="shape"/>
</filter>
<filter id="filter2_d" x="709.308" y="169.37" width="177.417" height="13.2521" filterUnits="userSpaceOnUse" color-interpolation-filters="sRGB">
<feFlood flood-opacity="0" result="BackgroundImageFix"/>
<feColorMatrix in="SourceAlpha" type="matrix" values="0 0 0 0 0 0 0 0 0 0 0 0 0 0 0 0 0 0 127 0"/>
<feOffset dy="4"/>
<feGaussianBlur stdDeviation="2"/>
<feColorMatrix type="matrix" values="0 0 0 0 0 0 0 0 0 0 0 0 0 0 0 0 0 0 0.25 0"/>
<feBlend mode="normal" in2="BackgroundImageFix" result="effect1_dropShadow"/>
<feBlend mode="normal" in="SourceGraphic" in2="effect1_dropShadow" result="shape"/>
</filter>
<filter id="filter3_d" x="709.308" y="190.004" width="177.417" height="13.2521" filterUnits="userSpaceOnUse" color-interpolation-filters="sRGB">
<feFlood flood-opacity="0" result="BackgroundImageFix"/>
<feColorMatrix in="SourceAlpha" type="matrix" values="0 0 0 0 0 0 0 0 0 0 0 0 0 0 0 0 0 0 127 0"/>
<feOffset dy="4"/>
<feGaussianBlur stdDeviation="2"/>
<feColorMatrix type="matrix" values="0 0 0 0 0 0 0 0 0 0 0 0 0 0 0 0 0 0 0.25 0"/>
<feBlend mode="normal" in2="BackgroundImageFix" result="effect1_dropShadow"/>
<feBlend mode="normal" in="SourceGraphic" in2="effect1_dropShadow" result="shape"/>
</filter>
<filter id="filter4_d" x="899.628" y="52.3198" width="32.4801" height="32.5096" filterUnits="userSpaceOnUse" color-interpolation-filters="sRGB">
<feFlood flood-opacity="0" result="BackgroundImageFix"/>
<feColorMatrix in="SourceAlpha" type="matrix" values="0 0 0 0 0 0 0 0 0 0 0 0 0 0 0 0 0 0 127 0"/>
<feOffset dy="4"/>
<feGaussianBlur stdDeviation="2"/>
<feColorMatrix type="matrix" values="0 0 0 0 0 0 0 0 0 0 0 0 0 0 0 0 0 0 0.25 0"/>
<feBlend mode="normal" in2="BackgroundImageFix" result="effect1_dropShadow"/>
<feBlend mode="normal" in="SourceGraphic" in2="effect1_dropShadow" result="shape"/>
</filter>
</defs>
</svg>
